<svg width="20" height="21" viewBox="0 0 20 21" fill="none" xmlns="http://www.w3.org/2000/svg">
<path d="M18.4456 14.8284C18.824 14.6603 19.2666 14.8308 19.4348 15.2092C19.6028 15.5877 19.4324 16.0303 19.054 16.1985L10.8665 19.8381C10.1556 20.154 9.34393 20.154 8.63306 19.8381L0.445557 16.1985C0.0671383 16.0303 -0.103319 15.5877 0.0646973 15.2092C0.232893 14.8308 0.67549 14.6603 1.05396 14.8284L9.24243 18.467C9.56546 18.6105 9.93405 18.6105 10.2571 18.467L18.4456 14.8284ZM18.4456 10.3284C18.824 10.1603 19.2666 10.3308 19.4348 10.7092C19.6028 11.0877 19.4324 11.5303 19.054 11.6985L10.8665 15.3381C10.1556 15.654 9.34393 15.654 8.63306 15.3381L0.445557 11.6985C0.0671383 11.5303 -0.103319 11.0877 0.0646973 10.7092C0.232893 10.3308 0.67549 10.1603 1.05396 10.3284L9.24243 13.967C9.56546 14.1105 9.93405 14.1105 10.2571 13.967L18.4456 10.3284ZM8.51978 0.290283C9.29398 -0.0968172 10.2055 -0.0968169 10.9797 0.290283L18.2961 3.94849C19.586 4.59341 19.586 6.43345 18.2961 7.07837L10.9797 10.7366C10.2055 11.1237 9.29398 11.1237 8.51978 10.7366L1.20337 7.07837C-0.0863854 6.43343 -0.086385 4.59342 1.20337 3.94849L8.51978 0.290283Z" fill="#B422CA"/>
</svg>
