<svg width="48" height="48" viewBox="0 0 48 48" fill="none" xmlns="http://www.w3.org/2000/svg">
<rect x="0.5" y="0.5" width="47" height="47" rx="9.5" stroke="#FFFDFD"/>
<path d="M32.3443 23.1071C32.1941 23.0354 32.0416 22.9663 31.887 22.9002C31.6179 17.9576 28.908 15.1279 24.3578 15.099C24.3371 15.0988 24.3166 15.0988 24.296 15.0988C21.5744 15.0988 19.3109 16.2566 17.9177 18.3635L20.4202 20.0743C21.4609 18.5006 23.0943 18.1651 24.2972 18.1651C24.3111 18.1651 24.3251 18.1651 24.3388 18.1652C25.837 18.1747 26.9676 18.6089 27.6993 19.4555C28.2318 20.0719 28.588 20.9236 28.7643 21.9986C27.436 21.7735 25.9994 21.7044 24.4637 21.7921C20.1375 22.0405 17.3563 24.555 17.5431 28.0491C17.6379 29.8215 18.5239 31.3463 20.0377 32.3423C21.3176 33.1844 22.9661 33.5961 24.6793 33.5029C26.9418 33.3793 28.7167 32.519 29.955 30.9459C30.8954 29.7513 31.4902 28.2032 31.7528 26.2525C32.8311 26.901 33.6302 27.7545 34.0715 28.7804C34.8219 30.5243 34.8657 33.3902 32.5194 35.7265C30.4637 37.7733 27.9926 38.6588 24.2582 38.6861C20.1156 38.6555 16.9827 37.3315 14.9458 34.7508C13.0383 32.3342 12.0525 28.8437 12.0158 24.3762C12.0525 19.9087 13.0383 16.4182 14.9458 14.0017C16.9827 11.421 20.1156 10.097 24.2581 10.0663C28.4307 10.0972 31.6182 11.4276 33.7331 14.0207C34.7702 15.2924 35.552 16.8916 36.0675 18.7562L39 17.9764C38.3752 15.6813 37.3922 13.7036 36.0544 12.0634C33.343 8.73883 29.3776 7.03532 24.2683 7H24.2479C19.149 7.0352 15.228 8.74519 12.5939 12.0824C10.2499 15.0521 9.04075 19.1843 9.00013 24.364L9 24.3762L9.00013 24.3885C9.04075 29.5681 10.2499 33.7004 12.5939 36.6701C15.228 40.0072 19.149 41.7174 24.2479 41.7525H24.2683C28.8016 41.7212 31.9969 40.5383 34.6292 37.9172C38.0732 34.4881 37.9695 30.1899 36.8344 27.5512C36.02 25.659 34.4674 24.1221 32.3443 23.1071ZM24.5173 30.4411C22.6213 30.5475 20.6514 29.6993 20.5543 27.8826C20.4823 26.5356 21.5162 25.0326 24.6337 24.8535C24.9907 24.833 25.3411 24.823 25.6852 24.823C26.8176 24.823 27.8769 24.9326 28.8401 25.1424C28.4808 29.6135 26.3737 30.3395 24.5173 30.4411Z" fill="white"/>
</svg>
